<?xml version="1.0" encoding="UTF-8" standalone="no"?>
<!-- Created with Inkscape (http://www.inkscape.org/) -->

<svg
   width="72.480583mm"
   height="18.247465mm"
   viewBox="0 0 72.480583 18.247465"
   version="1.1"
   id="svg1"
   xml:space="preserve"
   inkscape:version="1.4.2 (f4327f4, 2025-05-13)"
   sodipodi:docname="Taskel_logo.svg"
   xmlns:inkscape="http://www.inkscape.org/namespaces/inkscape"
   xmlns:sodipodi="http://sodipodi.sourceforge.net/DTD/sodipodi-0.dtd"
   xmlns="http://www.w3.org/2000/svg"
   xmlns:svg="http://www.w3.org/2000/svg"><sodipodi:namedview
     id="namedview1"
     pagecolor="#ffffff"
     bordercolor="#eeeeee"
     borderopacity="1"
     inkscape:showpageshadow="0"
     inkscape:pageopacity="0"
     inkscape:pagecheckerboard="0"
     inkscape:deskcolor="#c0c0c0"
     inkscape:document-units="mm"
     showguides="false"
     inkscape:zoom="0.69219276"
     inkscape:cx="486.13626"
     inkscape:cy="600.26632"
     inkscape:window-width="2560"
     inkscape:window-height="991"
     inkscape:window-x="-9"
     inkscape:window-y="-9"
     inkscape:window-maximized="1"
     inkscape:current-layer="layer1"><sodipodi:guide
       position="27.257695,63.6881"
       orientation="0,-1"
       id="guide1"
       inkscape:locked="false" /><sodipodi:guide
       position="10.056923,22.788489"
       orientation="0,-1"
       id="guide2"
       inkscape:locked="false" /><sodipodi:guide
       position="15.790517,52.9854"
       orientation="1,0"
       id="guide3"
       inkscape:locked="false" /><sodipodi:guide
       position="56.690124,43.238309"
       orientation="1,0"
       id="guide4"
       inkscape:locked="false" /><sodipodi:guide
       position="-8.2905667,50.054779"
       orientation="0,-1"
       id="guide5"
       inkscape:locked="false" /><sodipodi:guide
       position="-5.9971307,36.421449"
       orientation="0,-1"
       id="guide6"
       inkscape:locked="false" /><sodipodi:guide
       position="29.434588,68.5453"
       orientation="1,0"
       id="guide7"
       inkscape:locked="false" /><sodipodi:guide
       position="43.062364,68.5453"
       orientation="1,0"
       id="guide8"
       inkscape:locked="false" /><sodipodi:guide
       position="20.664067,77.32144"
       orientation="0,-1"
       id="guide9"
       inkscape:locked="false" /><sodipodi:guide
       position="20.664067,68.23255"
       orientation="0,-1"
       id="guide10"
       inkscape:locked="false" /><sodipodi:guide
       position="22.670823,72.777"
       orientation="0,-1"
       id="guide11"
       inkscape:locked="false" /><sodipodi:guide
       position="9.0057615,59.14366"
       orientation="0,-1"
       id="guide12"
       inkscape:locked="false" /><sodipodi:guide
       position="9.0057615,54.59921"
       orientation="0,-1"
       id="guide13"
       inkscape:locked="false" /><sodipodi:guide
       position="20.338535,80.31552"
       orientation="1,0"
       id="guide14"
       inkscape:locked="false" /><sodipodi:guide
       position="24.886561,82.57724"
       orientation="1,0"
       id="guide15"
       inkscape:locked="false" /><sodipodi:guide
       position="52.142094,82.38612"
       orientation="1,0"
       id="guide16"
       inkscape:locked="false" /><sodipodi:guide
       position="47.594074,82.38612"
       orientation="1,0"
       id="guide17"
       inkscape:locked="false" /><sodipodi:guide
       position="26.402569,82.57725"
       orientation="1,0"
       id="guide18"
       inkscape:locked="false" /><sodipodi:guide
       position="27.918579,82.57725"
       orientation="1,0"
       id="guide19"
       inkscape:locked="false" /><sodipodi:guide
       position="7.6201465,66.71773"
       orientation="0,-1"
       id="guide22"
       inkscape:locked="false" /><sodipodi:guide
       position="7.9068265,65.20292"
       orientation="0,-1"
       id="guide23"
       inkscape:locked="false" /><sodipodi:guide
       position="8.0501635,27.332939"
       orientation="0,-1"
       id="guide24"
       inkscape:locked="false" /><sodipodi:guide
       position="8.0501635,31.877389"
       orientation="0,-1"
       id="guide25"
       inkscape:locked="false" /><sodipodi:guide
       position="9.6552505,62.17329"
       orientation="0,-1"
       id="guide26"
       inkscape:locked="false" /><sodipodi:guide
       position="-3.9903747,33.392209"
       orientation="0,-1"
       id="guide27"
       inkscape:locked="false" /><sodipodi:guide
       position="3.6544134,53.0844"
       orientation="0,-1"
       id="guide28"
       inkscape:locked="false" /><sodipodi:guide
       position="-6.2838107,9.1551589"
       orientation="0,-1"
       id="guide29"
       inkscape:locked="false" /><sodipodi:guide
       position="-6.2838067,-4.4781712"
       orientation="0,-1"
       id="guide30"
       inkscape:locked="false" /><sodipodi:guide
       position="-16.795394,18.244049"
       orientation="0,-1"
       id="guide31"
       inkscape:locked="false" /><sodipodi:guide
       position="-6.2838027,-18.111501"
       orientation="0,-1"
       id="guide32"
       inkscape:locked="false" /><sodipodi:guide
       position="-22.624529,-13.567061"
       orientation="0,-1"
       id="guide33"
       inkscape:locked="false" /><sodipodi:guide
       position="-22.624533,-9.0226113"
       orientation="0,-1"
       id="guide34"
       inkscape:locked="false" /><sodipodi:guide
       position="-32.103636,0.066278826"
       orientation="0,-1"
       id="guide39"
       inkscape:locked="false" /><sodipodi:guide
       position="-33.635253,4.6107189"
       orientation="0,-1"
       id="guide40"
       inkscape:locked="false" /><sodipodi:guide
       position="198.58172,95.34755"
       orientation="1,0"
       id="guide41"
       inkscape:locked="false" /><sodipodi:guide
       position="212.20948,94.59947"
       orientation="1,0"
       id="guide42"
       inkscape:locked="false" /><inkscape:page
       x="0"
       y="0"
       width="72.480583"
       height="18.247465"
       id="page2"
       margin="0"
       bleed="0" /></sodipodi:namedview><defs
     id="defs1" /><g
     inkscape:label="Layer 1"
     inkscape:groupmode="layer"
     id="layer1"
     transform="translate(-63.524157,-154.56997)"><path
       d="m 68.553476,158.59987 h -4.610207 c -0.279406,0 -0.419109,-0.12895 -0.419109,-0.38687 v -3.19169 c 0,-0.30089 0.139703,-0.45134 0.419109,-0.45134 h 11.928506 c 0.752247,0 1.311061,0.19343 1.676439,0.5803 0.365377,0.38688 0.548066,0.9242 0.548066,1.61196 v 1.28957 c 0,0.36537 -0.161196,0.54807 -0.483589,0.54807 h -4.706923 v 13.47598 c 0,0.27942 -0.139703,0.41912 -0.419109,0.41912 h -3.514074 c -0.279406,0 -0.419109,-0.1397 -0.419109,-0.41912 z m 16.190958,12.99239 c -0.38687,0.3439 -0.838219,0.6233 -1.354046,0.83823 -0.494334,0.21492 -1.074641,0.3224 -1.740917,0.3224 -1.246583,0 -2.29973,-0.29016 -3.159442,-0.87047 -0.83822,-0.6018 -1.472257,-1.39703 -1.902114,-2.38571 -0.429855,-1.01015 -0.644783,-2.11703 -0.644783,-3.32063 0,-1.22509 0.225674,-2.32122 0.677023,-3.2884 0.472842,-0.98867 1.139119,-1.76241 1.99883,-2.32122 0.881206,-0.5803 1.91286,-0.87046 3.094964,-0.87046 1.590467,0 2.826304,0.47285 3.707509,1.41853 0.236422,-0.38687 0.580306,-0.65553 1.031654,-0.80599 0.451349,-0.17193 0.988669,-0.25791 1.611961,-0.25791 h 0.548066 c 0.279406,0 0.419109,0.1397 0.419109,0.41912 v 11.6061 c 0,0.27942 -0.139703,0.41912 -0.419109,0.41912 h -3.449594 c -0.279407,0 -0.419111,-0.1397 -0.419111,-0.41912 z m -2.127787,-2.77256 c 0.236421,0 0.515828,-0.0538 0.83822,-0.1612 0.343884,-0.12896 0.644784,-0.37613 0.902697,-0.74151 0.257914,-0.38686 0.38687,-0.95643 0.38687,-1.70867 0,-0.75225 -0.128956,-1.30031 -0.38687,-1.6442 -0.257913,-0.34388 -0.558813,-0.56955 -0.902697,-0.67702 -0.322392,-0.10747 -0.601799,-0.1612 -0.83822,-0.1612 -0.214928,0 -0.505081,0.0537 -0.870458,0.1612 -0.365378,0.10747 -0.687769,0.33314 -0.967177,0.67702 -0.279407,0.34389 -0.41911,0.89195 -0.41911,1.6442 0,0.75224 0.139703,1.32181 0.41911,1.70867 0.279408,0.36538 0.591052,0.61255 0.934937,0.74151 0.365378,0.10746 0.666278,0.1612 0.902698,0.1612 z m 7.866388,-0.0644 c 0,-0.25791 0.05373,-0.44059 0.161196,-0.54806 0.107464,-0.10747 0.214928,-0.16119 0.322392,-0.16119 0.08597,0 0.171943,0.0323 0.257913,0.0967 0.107465,0.043 0.236421,0.11819 0.386871,0.22567 0.300899,0.19344 0.720009,0.41911 1.257329,0.67703 0.53732,0.23641 1.235837,0.35462 2.095548,0.35462 0.429856,0 0.741502,-0.0644 0.934938,-0.19343 0.193435,-0.15044 0.290152,-0.31164 0.290152,-0.48358 0,-0.23643 -0.182689,-0.42986 -0.548067,-0.58031 -0.343885,-0.17194 -0.784487,-0.33314 -1.321807,-0.48358 -0.515827,-0.17195 -1.042401,-0.39763 -1.579721,-0.67702 -0.537319,-0.30091 -0.988669,-0.69853 -1.354047,-1.19286 -0.343884,-0.51583 -0.515827,-1.18211 -0.515827,-1.99884 0,-0.96717 0.236421,-1.75165 0.709263,-2.35345 0.472842,-0.6018 1.07464,-1.04241 1.805396,-1.32181 0.752248,-0.2794 1.515242,-0.41911 2.288983,-0.41911 0.623291,0 1.203596,0.0537 1.740917,0.16119 0.537319,0.10747 0.977922,0.22568 1.321807,0.35463 0.62329,0.27941 1.042397,0.6233 1.257327,1.03166 0.214932,0.38687 0.204172,0.95643 -0.03226,1.70868 l -0.225669,0.7415 c -0.06444,0.17194 -0.161198,0.25792 -0.290152,0.25792 -0.08598,0 -0.161199,-0.0108 -0.225677,-0.0323 -0.06448,-0.043 -0.139703,-0.0752 -0.225675,-0.0967 -1.053147,-0.45135 -2.041816,-0.67702 -2.966007,-0.67702 -0.322392,0 -0.548067,0.0537 -0.677023,0.1612 -0.107464,0.10746 -0.161195,0.22568 -0.161195,0.35463 0,0.25792 0.171941,0.47284 0.515826,0.64478 0.365378,0.15046 0.805981,0.31165 1.321808,0.4836 0.53732,0.17193 1.07464,0.39761 1.61196,0.67702 0.537321,0.2794 0.977924,0.65553 1.321804,1.12837 0.365372,0.47284 0.548062,1.09612 0.548062,1.86987 0,1.26808 -0.4406,2.31047 -1.321799,3.1272 -0.881206,0.81673 -2.052564,1.22509 -3.514074,1.22509 -0.967176,0 -1.848381,-0.1827 -2.643615,-0.54807 -0.773741,-0.38686 -1.397031,-0.89195 -1.869874,-1.51524 -0.451348,-0.62328 -0.677023,-1.28956 -0.677023,-1.99883 z m 15.797225,0 v 3.32064 c 0,0.27941 -0.13971,0.41911 -0.41912,0.41911 h -3.41736 c -0.2794,0 -0.4191,-0.1397 -0.4191,-0.41911 V 155.0214 c 0,-0.3009 0.1397,-0.45134 0.4191,-0.45134 h 0.74151 c 1.01016,0 1.77316,0.24716 2.28898,0.7415 0.53733,0.47283 0.80599,1.27882 0.80599,2.41793 v 5.64187 l 2.5469,-2.90153 c 0.21492,-0.27941 0.46209,-0.41911 0.74149,-0.41911 h 3.99767 c 0.12895,0 0.20418,0.0537 0.22566,0.16119 0.043,0.0859 0.0214,0.17195 -0.0644,0.25792 l -3.772,4.19109 4.12663,7.41502 c 0.043,0.0859 0.043,0.1827 0,0.29015 -0.043,0.0859 -0.11819,0.12896 -0.22567,0.12896 h -3.86871 c -0.36538,0 -0.62329,-0.1397 -0.77374,-0.41911 l -2.16003,-4.15885 z m 12.70224,-1.16061 c 0.10746,0.53732 0.39762,0.98867 0.87046,1.35405 0.49433,0.34389 1.13911,0.51582 1.93435,0.51582 0.81671,0 1.48299,-0.0859 1.99883,-0.25791 0.53732,-0.17194 1.12837,-0.39762 1.77315,-0.67702 0.21493,-0.10747 0.39762,-0.1612 0.54807,-0.1612 0.25791,0 0.38687,0.1612 0.38687,0.48359 0,0.49434 -0.17194,1.05315 -0.51583,1.67645 -0.32238,0.62328 -0.88121,1.1606 -1.67644,1.61195 -0.77374,0.45136 -1.84838,0.67702 -3.22392,0.67702 -1.95585,0 -3.52482,-0.5803 -4.70692,-1.74091 -1.16062,-1.1821 -1.74092,-2.78332 -1.74092,-4.80365 0,-1.24658 0.24716,-2.3642 0.74151,-3.35287 0.51582,-0.98867 1.24658,-1.77316 2.19226,-2.35346 0.94568,-0.58031 2.07405,-0.87046 3.38512,-0.87046 1.35404,0 2.45017,0.27941 3.28839,0.83822 0.85971,0.53732 1.49375,1.23584 1.90211,2.09555 0.40836,0.8597 0.61255,1.7624 0.61255,2.70808 0,0.40837 -0.0108,0.76301 -0.0323,1.0639 -0.0215,0.27941 -0.0322,0.51583 -0.0322,0.70927 -0.0215,0.32239 -0.22568,0.48358 -0.61254,0.48358 z m -0.0323,-2.74033 h 3.61079 c 0.043,-0.38687 -0.0645,-0.77374 -0.32239,-1.16061 -0.23641,-0.38687 -0.70926,-0.5803 -1.41853,-0.5803 -0.62329,0 -1.08538,0.19343 -1.38628,0.5803 -0.3009,0.36537 -0.46209,0.75225 -0.48359,1.16061 z m 13.44378,7.89861 c -1.11763,0 -2.03108,-0.35463 -2.74033,-1.0639 -0.68778,-0.73075 -1.03166,-1.84837 -1.03166,-3.35288 V 155.0214 c 0,-0.3009 0.1397,-0.45134 0.41911,-0.45134 h 0.7415 c 1.01016,0 1.77315,0.24716 2.28899,0.7415 0.53732,0.47283 0.80598,1.27882 0.80598,2.41793 v 10.12312 c 0,0.53732 0.086,0.89195 0.25791,1.06389 0.19344,0.17194 0.45135,0.25792 0.77374,0.25792 0.23643,0 0.46209,-0.0537 0.67702,-0.1612 0.21493,-0.10747 0.41912,-0.23642 0.61255,-0.38687 0.043,-0.043 0.0967,-0.0752 0.16119,-0.0967 0.0859,-0.043 0.17195,-0.0644 0.25792,-0.0644 0.15044,0 0.24717,0.0753 0.29015,0.22568 0.0644,0.15044 0.0967,0.27939 0.0967,0.38687 0,0.5588 -0.11821,1.12837 -0.35464,1.70867 -0.2364,0.55882 -0.62328,1.03166 -1.1606,1.41853 -0.51583,0.36537 -1.21434,0.54807 -2.09555,0.54807 z"
       id="text34"
       style="font-weight:900;font-size:40.8734px;font-family:Zain;-inkscape-font-specification:'Zain, Heavy';text-align:center;text-anchor:middle;fill:#252c37;fill-opacity:1;stroke-width:0.264583;stroke-linecap:round"
       aria-label="Taskel"
       sodipodi:nodetypes="cssssssssscsssscccsccsccsccssssssscsccsscssssccscsscccscsccccsscssccccsccscsccscssscccccssssssscsccsscccccsscccccsccssccscscsscssccsccccsccccsssscsscssccscscccc"
       inkscape:export-filename="150dpi\Taskel_text_color.png"
       inkscape:export-xdpi="96"
       inkscape:export-ydpi="96" /></g></svg>
