<?xml version="1.0" encoding="UTF-8" standalone="no"?>
<!-- Created with Inkscape (http://www.inkscape.org/) -->

<svg
   width="40.867432mm"
   height="42.448914mm"
   viewBox="0 0 40.867432 42.448914"
   version="1.1"
   id="svg1"
   xml:space="preserve"
   inkscape:version="1.4.2 (f4327f4, 2025-05-13)"
   sodipodi:docname="Taskel_logo.svg"
   xmlns:inkscape="http://www.inkscape.org/namespaces/inkscape"
   xmlns:sodipodi="http://sodipodi.sourceforge.net/DTD/sodipodi-0.dtd"
   xmlns="http://www.w3.org/2000/svg"
   xmlns:svg="http://www.w3.org/2000/svg"><sodipodi:namedview
     id="namedview1"
     pagecolor="#ffffff"
     bordercolor="#eeeeee"
     borderopacity="1"
     inkscape:showpageshadow="0"
     inkscape:pageopacity="0"
     inkscape:pagecheckerboard="0"
     inkscape:deskcolor="#c0c0c0"
     inkscape:document-units="mm"
     showguides="false"
     inkscape:zoom="0.69219276"
     inkscape:cx="486.13626"
     inkscape:cy="600.26632"
     inkscape:window-width="2560"
     inkscape:window-height="991"
     inkscape:window-x="-9"
     inkscape:window-y="-9"
     inkscape:window-maximized="1"
     inkscape:current-layer="layer1"><sodipodi:guide
       position="11.45112,40.883559"
       orientation="0,-1"
       id="guide1"
       inkscape:locked="false" /><sodipodi:guide
       position="-5.7496524,-0.01605167"
       orientation="0,-1"
       id="guide2"
       inkscape:locked="false" /><sodipodi:guide
       position="-0.016058357,30.180859"
       orientation="1,0"
       id="guide3"
       inkscape:locked="false" /><sodipodi:guide
       position="40.883549,20.433768"
       orientation="1,0"
       id="guide4"
       inkscape:locked="false" /><sodipodi:guide
       position="-24.097141,27.250238"
       orientation="0,-1"
       id="guide5"
       inkscape:locked="false" /><sodipodi:guide
       position="-21.803705,13.616908"
       orientation="0,-1"
       id="guide6"
       inkscape:locked="false" /><sodipodi:guide
       position="13.628013,45.740759"
       orientation="1,0"
       id="guide7"
       inkscape:locked="false" /><sodipodi:guide
       position="27.255789,45.740759"
       orientation="1,0"
       id="guide8"
       inkscape:locked="false" /><sodipodi:guide
       position="4.8574917,54.516899"
       orientation="0,-1"
       id="guide9"
       inkscape:locked="false" /><sodipodi:guide
       position="4.8574917,45.428009"
       orientation="0,-1"
       id="guide10"
       inkscape:locked="false" /><sodipodi:guide
       position="6.8642477,49.972459"
       orientation="0,-1"
       id="guide11"
       inkscape:locked="false" /><sodipodi:guide
       position="-6.8008134,36.339119"
       orientation="0,-1"
       id="guide12"
       inkscape:locked="false" /><sodipodi:guide
       position="-6.8008134,31.794669"
       orientation="0,-1"
       id="guide13"
       inkscape:locked="false" /><sodipodi:guide
       position="4.5319597,57.510979"
       orientation="1,0"
       id="guide14"
       inkscape:locked="false" /><sodipodi:guide
       position="9.0799857,59.772699"
       orientation="1,0"
       id="guide15"
       inkscape:locked="false" /><sodipodi:guide
       position="36.335519,59.581579"
       orientation="1,0"
       id="guide16"
       inkscape:locked="false" /><sodipodi:guide
       position="31.787499,59.581579"
       orientation="1,0"
       id="guide17"
       inkscape:locked="false" /><sodipodi:guide
       position="10.595994,59.772709"
       orientation="1,0"
       id="guide18"
       inkscape:locked="false" /><sodipodi:guide
       position="12.112004,59.772709"
       orientation="1,0"
       id="guide19"
       inkscape:locked="false" /><sodipodi:guide
       position="-8.1864284,43.913189"
       orientation="0,-1"
       id="guide22"
       inkscape:locked="false" /><sodipodi:guide
       position="-7.8997484,42.398379"
       orientation="0,-1"
       id="guide23"
       inkscape:locked="false" /><sodipodi:guide
       position="-7.7564114,4.5283984"
       orientation="0,-1"
       id="guide24"
       inkscape:locked="false" /><sodipodi:guide
       position="-7.7564114,9.0728484"
       orientation="0,-1"
       id="guide25"
       inkscape:locked="false" /><sodipodi:guide
       position="-6.1513244,39.368749"
       orientation="0,-1"
       id="guide26"
       inkscape:locked="false" /><sodipodi:guide
       position="-19.796949,10.587668"
       orientation="0,-1"
       id="guide27"
       inkscape:locked="false" /><sodipodi:guide
       position="-12.152161,30.279859"
       orientation="0,-1"
       id="guide28"
       inkscape:locked="false" /><sodipodi:guide
       position="-22.090385,-13.649382"
       orientation="0,-1"
       id="guide29"
       inkscape:locked="false" /><sodipodi:guide
       position="-22.090381,-27.282712"
       orientation="0,-1"
       id="guide30"
       inkscape:locked="false" /><sodipodi:guide
       position="-32.601968,-4.5604917"
       orientation="0,-1"
       id="guide31"
       inkscape:locked="false" /><sodipodi:guide
       position="-22.090377,-40.916042"
       orientation="0,-1"
       id="guide32"
       inkscape:locked="false" /><sodipodi:guide
       position="-38.431103,-36.371602"
       orientation="0,-1"
       id="guide33"
       inkscape:locked="false" /><sodipodi:guide
       position="-38.431107,-31.827152"
       orientation="0,-1"
       id="guide34"
       inkscape:locked="false" /><sodipodi:guide
       position="-47.91021,-22.738262"
       orientation="0,-1"
       id="guide39"
       inkscape:locked="false" /><sodipodi:guide
       position="-49.441827,-18.193822"
       orientation="0,-1"
       id="guide40"
       inkscape:locked="false" /><sodipodi:guide
       position="182.77514,72.543009"
       orientation="1,0"
       id="guide41"
       inkscape:locked="false" /><sodipodi:guide
       position="196.4029,71.794929"
       orientation="1,0"
       id="guide42"
       inkscape:locked="false" /><inkscape:page
       x="0"
       y="0"
       width="40.867432"
       height="42.448914"
       id="page2"
       margin="0"
       bleed="0" /></sodipodi:namedview><defs
     id="defs1" /><g
     inkscape:label="Layer 1"
     inkscape:groupmode="layer"
     id="layer1"
     transform="translate(-79.330731,-107.56399)"><g
       id="g40"
       style="stroke:none"
       inkscape:export-filename="150dpi\Taskel_icon_text_tagline_color_vertical.png"
       inkscape:export-xdpi="96"
       inkscape:export-ydpi="96"><path
         d="m 111.1312,110.4346 c -0.27233,0.005 -0.49876,0.0662 -0.65371,0.21084 -0.6198,0.57869 0.11679,1.4118 0.11679,1.4118 0.27421,1.63887 -0.98935,3.13149 -2.651,3.13159 H 91.585624 c -1.661651,-10e-5 -2.925209,-1.49272 -2.651001,-3.13159 0,0 0.525089,-0.91229 0.211874,-1.42058 -0.332433,-0.53946 -2.48306,0.18339 -3.724321,0.56172 -1.676914,0.51111 -3.5274,2.3616 -4.038513,4.03851 -1.068135,3.50446 -1.736633,7.28742 -1.973006,11.16935 -0.106559,1.74999 -0.106559,4.59587 0,6.34586 0.236374,3.88193 0.904871,7.66489 1.973006,11.16935 0.511113,1.67691 2.361597,3.5274 4.038513,4.03851 3.504453,1.06814 7.287418,1.73663 11.169344,1.97301 1.749993,0.10656 4.59587,0.10656 6.34587,0 3.88192,-0.23638 7.66489,-0.90487 11.16934,-1.97301 1.67691,-0.51111 3.5274,-2.3616 4.03851,-4.03851 1.06814,-3.50446 1.73664,-7.28742 1.97301,-11.16935 0.10656,-1.74999 0.10656,-4.59587 0,-6.34586 -0.23637,-3.88193 -0.90487,-7.66489 -1.97301,-11.16935 -0.51111,-1.67691 -2.36159,-3.5274 -4.03851,-4.03851 -0.93094,-0.28375 -2.15854,-0.77833 -2.97553,-0.76378 z m -1.1622,9.36016 c 0.39046,0.006 0.75246,0.20553 0.96635,0.53226 l 1.1653,1.77767 c 0.31353,0.47934 0.23652,1.11477 -0.18242,1.50534 l -0.004,0.005 -0.0165,0.0155 -0.0672,0.062 -0.26458,0.25321 c -1.46547,1.42154 -2.88657,2.88814 -4.26124,4.39767 -2.58615,2.84394 -5.65756,6.56625 -7.724592,10.17767 -0.576791,1.00762 -1.985774,1.22387 -2.821533,0.35398 l -7.633643,-7.93129 c -0.46109,-0.47922 -0.433931,-1.24498 0.05994,-1.69034 l 2.307353,-2.08101 c 0.418132,-0.37705 1.044725,-0.4052 1.494999,-0.0672 l 3.894853,2.92024 c 6.084563,-5.99981 9.534933,-8.30212 12.461263,-10.06192 0.18857,-0.11351 0.4052,-0.17188 0.62528,-0.16847 z"
         style="vector-effect:non-scaling-stroke;fill:#f8c61e;stroke-width:0.264583;stroke-linecap:round;-inkscape-stroke:hairline"
         id="path54" /><path
         d="m 109.969,119.79476 -5.2e-4,5.1e-4 c -0.22008,-0.003 -0.43671,0.055 -0.62528,0.16847 -2.92633,1.7598 -6.3767,4.06211 -12.461258,10.06192 l -3.894853,-2.92024 c -0.450274,-0.33802 -1.076867,-0.30987 -1.494999,0.0672 l -2.307353,2.08101 c -0.493876,0.44536 -0.521035,1.21112 -0.05994,1.69034 l 7.633643,7.93129 c 0.835759,0.86989 2.244742,0.65364 2.821533,-0.35398 2.067027,-3.61142 5.138437,-7.33373 7.724587,-10.17767 1.37467,-1.50953 2.79578,-2.97613 4.26124,-4.39767 l 0.26458,-0.25321 0.0672,-0.062 0.0165,-0.0155 0.004,-0.005 c 0.41894,-0.39057 0.49595,-1.026 0.18242,-1.50534 l -1.1653,-1.77767 c -0.21389,-0.32673 -0.57589,-0.52626 -0.96635,-0.53226 z"
         style="vector-effect:non-scaling-stroke;fill:#252c37;fill-opacity:1;stroke-width:0.264583;stroke-linecap:round;-inkscape-stroke:hairline"
         id="path53" /><path
         d="m 94.164278,107.56398 c -0.471787,0 -0.900259,0.15745 -1.23455,0.42891 -0.354531,0.2879 -0.603146,2.29159 -0.685746,2.78536 l -0.12299,0.73639 c -0.03224,0.19274 0.0152,0.31295 0.117306,0.43357 0.102109,0.12058 0.212631,0.18758 0.406176,0.18758 h 14.240476 c 0.19354,0 0.30407,-0.067 0.40618,-0.18758 0.1021,-0.12062 0.1492,-0.24055 0.1173,-0.4315 l -0.12351,-0.74001 c -0.0824,-0.49276 -0.3309,-2.49607 -0.68523,-2.78381 -0.33423,-0.27142 -0.76266,-0.42891 -1.23455,-0.42891 z"
         style="vector-effect:non-scaling-stroke;fill:#252c37;fill-opacity:1;stroke-width:0.264583;stroke-linecap:round;-inkscape-stroke:hairline"
         id="path50"
         sodipodi:nodetypes="ssccssscccsss" /></g></g></svg>
